<svg width="428" height="875" viewBox="0 0 428 875" fill="none" xmlns="http://www.w3.org/2000/svg">
<g filter="url(#filter0_f_85_277)">
<path d="M-87.3261 439.13C-99.877 529.396 -62.689 597.609 -42.5261 620.432L262.837 713.816C322.584 566.55 440.069 268.75 432.024 255.676C421.967 239.334 292.719 283.83 216.299 274.169C139.879 264.507 149.384 171.894 91.6193 151.576C33.8543 131.257 -71.6375 326.297 -87.3261 439.13Z" fill="#3EDAFC"/>
<path d="M422.262 437.097C430.177 472.385 397.012 580.364 379.439 629.942L185.509 724.932C138.429 639.651 44.6089 455.623 45.9723 401.762C47.6766 334.435 119.879 367.397 145.063 383.081C170.247 398.765 226.935 423.642 286.352 409.342C345.77 395.042 412.368 392.988 422.262 437.097Z" fill="#1E25C9"/>
</g>
<path d="M297.844 252.008C373.848 232.194 400.942 180.518 404.989 157.157C378.358 311.569 325.229 617.723 325.759 607.039C326.422 593.684 323.643 511.944 151.428 542.736C-20.786 573.529 -27.1346 444.321 5.06652 418.379C37.2676 392.437 88.0627 409.306 124.942 320.843C161.822 232.379 202.839 276.775 297.844 252.008Z" stroke="white"/>
<path d="M303.532 233.406C379.537 213.593 406.631 161.916 410.678 138.555C384.047 292.968 330.918 599.122 331.448 588.438C332.111 575.082 329.332 493.342 157.117 524.135C-15.0973 554.928 -21.4459 425.719 10.7552 399.777C42.9564 373.836 93.7514 390.705 130.631 302.241C167.511 213.777 208.527 258.173 303.532 233.406Z" stroke="white" stroke-opacity="0.6"/>
<path d="M308.974 215.612C384.978 195.799 412.072 144.123 416.119 120.761C389.488 275.174 336.359 581.328 336.889 570.644C337.552 557.288 334.773 475.548 162.559 506.341C-9.6559 537.134 -16.0045 407.925 16.1967 381.983C48.3978 356.042 99.1928 372.911 136.073 284.447C172.952 195.983 213.969 240.379 308.974 215.612Z" stroke="white" stroke-opacity="0.4"/>
<defs>
<filter id="filter0_f_85_277" x="-239.856" y="0.105469" width="822.272" height="874.826" filterUnits="userSpaceOnUse" color-interpolation-filters="sRGB">
<feFlood flood-opacity="0" result="BackgroundImageFix"/>
<feBlend mode="normal" in="SourceGraphic" in2="BackgroundImageFix" result="shape"/>
<feGaussianBlur stdDeviation="75" result="effect1_foregroundBlur_85_277"/>
</filter>
</defs>
</svg>
