<svg width="546" height="364" viewBox="0 0 546 364" fill="none" xmlns="http://www.w3.org/2000/svg">
<path d="M266.882 119.021C266.302 119.021 265.719 118.926 265.157 118.731L256.243 115.642C254.464 115.025 253.137 113.494 252.781 111.644L250.999 102.38C250.644 100.531 251.307 98.6163 252.73 97.3831L259.863 91.2075C261.286 89.9742 263.275 89.592 265.055 90.2086L273.969 93.2975C275.748 93.9142 277.075 95.4459 277.431 97.2957L279.213 106.56C279.568 108.409 278.905 110.323 277.482 111.556L270.349 117.731C269.375 118.575 268.136 119.021 266.882 119.021ZM258.442 110.241L266.771 113.127L273.435 107.357L271.77 98.7008L263.441 95.8142L256.777 101.584L258.442 110.241Z" fill="#F5F5F5"/>
<path d="M370.871 92.1182C370.291 92.1182 369.708 92.0236 369.146 91.8285L364.634 90.2655C362.854 89.6481 361.528 88.1157 361.173 86.2666L360.271 81.579C359.915 79.7306 360.578 77.8167 362.002 76.5827L365.613 73.4559C367.037 72.2227 369.027 71.8405 370.806 72.4579L375.317 74.0216C377.097 74.6382 378.424 76.1707 378.779 78.0205L379.68 82.7081C380.035 84.5579 379.373 86.4711 377.951 87.7044L374.339 90.8311C373.365 91.6727 372.126 92.1182 370.871 92.1182ZM366.833 84.8637L370.761 86.2243L373.903 83.5038L373.118 79.4226L369.19 78.0613L366.048 80.7818L366.833 84.8637Z" fill="#F5F5F5"/>
<path d="M495.537 160.72C494.385 160.72 493.275 160.198 492.543 159.286L490.002 156.114C489.148 155.05 488.925 153.599 489.42 152.327L490.896 148.54C491.39 147.269 492.536 146.35 493.884 146.142L497.903 145.526C499.247 145.319 500.618 145.853 501.473 146.917L504.014 150.088C504.868 151.152 505.091 152.604 504.596 153.876L503.12 157.663C502.625 158.934 501.48 159.853 500.131 160.06L496.113 160.675C495.922 160.706 495.729 160.72 495.537 160.72ZM498.482 148.395C498.436 148.395 498.39 148.398 498.344 148.406L494.325 149.022C494.002 149.071 493.728 149.292 493.609 149.597L492.133 153.384C492.015 153.689 492.068 154.038 492.273 154.293L494.814 157.464C495.019 157.72 495.355 157.848 495.671 157.798L499.689 157.182C500.012 157.132 500.287 156.912 500.405 156.607L501.881 152.82C502 152.515 501.947 152.166 501.741 151.911V151.91L499.2 148.74C499.025 148.521 498.759 148.395 498.482 148.395Z" fill="#E0E0E0"/>
<path d="M42.0049 192.36C40.5248 192.36 39.098 191.689 38.1574 190.515L32.1841 183.066C31.0878 181.697 30.8017 179.832 31.4379 178.198L34.9039 169.299C35.5409 167.665 37.0122 166.486 38.7456 166.22L48.1849 164.772C49.9211 164.506 51.6763 165.191 52.7734 166.56L58.7467 174.01C59.8438 175.378 60.1299 177.243 59.4936 178.877L56.0269 187.777C55.3906 189.411 53.9186 190.591 52.1845 190.858L42.7452 192.305C42.4992 192.341 42.2517 192.36 42.0049 192.36ZM36.2231 179.955L42.0726 187.251L51.316 185.834L54.7099 177.12L48.8604 169.823L39.6177 171.241L36.2231 179.955Z" fill="#E0E0E0"/>
<path d="M66.1621 127.106H60.5332C59.1682 127.106 57.8964 126.372 57.2143 125.19L54.3998 120.314C53.717 119.132 53.717 117.664 54.3998 116.482L57.2143 111.607C57.8964 110.425 59.1682 109.691 60.5332 109.691H66.1621C67.5264 109.691 68.7982 110.424 69.4811 111.606L72.2963 116.481C72.9791 117.664 72.9791 119.131 72.2963 120.314L69.4811 125.189C68.7982 126.372 67.5264 127.106 66.1621 127.106ZM60.5325 112.604C60.2049 112.604 59.8992 112.78 59.7354 113.064L56.9209 117.94C56.7571 118.224 56.7571 118.576 56.9209 118.86L59.7354 123.735C59.8992 124.019 60.2049 124.195 60.5325 124.195H66.1614C66.489 124.195 66.7948 124.019 66.9586 123.735L69.773 118.86C69.9368 118.576 69.9368 118.224 69.773 117.94L66.9586 113.064C66.7948 112.78 66.489 112.604 66.1614 112.604H60.5325Z" fill="#EBEBEB"/>
<path d="M162.183 72.037L151.208 65.1298L137.73 42.3863L118.984 30.908L115.355 34.8377L117.262 37.3966L123.176 45.334L146.672 76.871L156.254 82.1424L162.183 72.037Z" fill="#EBEBEB"/>
<path d="M148.391 88.3887L145.247 77.9149L110.722 38.4741L106.119 41.1975L113.408 61.9353L133.45 81.6204L137.941 93.9149L148.391 88.3887Z" fill="#EBEBEB"/>
<path d="M167.089 73.9881C167.089 73.9881 206.076 95.384 213.93 102.607C221.784 109.83 240.134 139.902 238.271 143.743C236.407 147.584 234.982 148.078 230.751 144.384C226.521 140.689 212.855 120.053 209.18 116.719C205.505 113.385 159.84 86.5934 159.84 86.5934L167.089 73.9881Z" fill="#E0E0E0"/>
<path d="M140.661 83.1521C147.479 83.1521 153.007 77.6246 153.007 70.806C153.007 63.9874 147.479 58.4598 140.661 58.4598C133.842 58.4598 128.314 63.9874 128.314 70.806C128.314 77.6246 133.842 83.1521 140.661 83.1521Z" fill="#EBEBEB"/>
<path d="M137.554 82.7554C137.564 82.6906 138.616 83.0502 140.57 83.0662C141.544 83.0895 142.741 82.9352 144.065 82.5508C145.387 82.1599 146.836 81.4806 148.196 80.3996C149.545 79.3199 150.834 77.8538 151.682 75.9959C152.513 74.1482 153.018 71.9511 152.766 69.6696C152.675 68.5303 152.387 67.38 151.934 66.2742C151.73 65.71 151.427 65.1851 151.145 64.6442C150.81 64.1346 150.489 63.6075 150.079 63.1365C148.53 61.1876 146.265 59.728 143.719 59.0408C141.16 58.4001 138.471 58.5719 136.167 59.5191C135.581 59.7309 135.043 60.0352 134.502 60.317C133.993 60.6518 133.472 60.9634 133.019 61.3565C132.085 62.102 131.274 62.9669 130.638 63.9177C129.307 65.7879 128.678 67.9529 128.505 69.9724C128.341 72.0079 128.753 73.9167 129.406 75.5161C130.067 77.1228 131.002 78.4216 131.966 79.4066C132.937 80.3872 133.906 81.105 134.769 81.5593C136.484 82.4962 137.577 82.6935 137.554 82.7554C137.553 82.7619 137.487 82.7474 137.358 82.7139C137.21 82.6724 137.023 82.62 136.791 82.5552C136.54 82.4897 136.234 82.3943 135.887 82.2392C135.536 82.0958 135.126 81.9393 134.699 81.6881C133.816 81.2484 132.818 80.5386 131.816 79.5551C130.821 78.5672 129.851 77.2546 129.159 75.6195C128.475 73.9917 128.038 72.0392 128.192 69.9499C128.355 67.878 128.991 65.6503 130.351 63.7189C131.001 62.7383 131.832 61.8443 132.792 61.0741C133.258 60.6686 133.792 60.3454 134.317 59.9996C134.874 59.7076 135.427 59.3931 136.031 59.1733C138.402 58.1927 141.178 58.0114 143.816 58.6724C146.44 59.3793 148.776 60.8899 150.369 62.9006C150.789 63.3862 151.12 63.93 151.463 64.4564C151.753 65.014 152.063 65.5556 152.272 66.1373C152.734 67.2774 153.026 68.4626 153.116 69.6354C153.363 71.9846 152.834 74.2385 151.968 76.1277C151.086 78.0277 149.753 79.5201 148.363 80.6085C146.962 81.6998 145.476 82.3739 144.126 82.7525C142.773 83.1237 141.555 83.2577 140.57 83.2118C140.075 83.2235 139.641 83.1601 139.264 83.1143C138.885 83.0815 138.571 83.0153 138.319 82.9505C138.085 82.8944 137.897 82.8493 137.746 82.8129C137.618 82.7816 137.553 82.7612 137.554 82.7554Z" fill="#E0E0E0"/>
<path d="M138.906 77.5531C135.18 76.5841 132.945 72.7781 133.913 69.0522C134.882 65.3256 138.688 63.0906 142.414 64.0589C146.14 65.0271 148.376 68.8338 147.407 72.5597C146.439 76.2856 142.633 78.5213 138.906 77.5531Z" fill="#E0E0E0"/>
<path d="M138.906 77.5531C138.915 77.5058 139.511 77.698 140.609 77.6965C141.686 77.6929 143.343 77.398 144.879 76.1765C145.632 75.5693 146.351 74.7467 146.822 73.7064C147.284 72.6719 147.563 71.4437 147.421 70.1705C147.368 69.5342 147.207 68.8921 146.953 68.2755C146.71 67.6545 146.361 67.0583 145.917 66.5254C145.051 65.4385 143.787 64.6253 142.367 64.2416C140.939 63.8842 139.44 63.9796 138.153 64.5074C137.505 64.7556 136.911 65.1072 136.395 65.5309C135.873 65.9466 135.42 66.4285 135.064 66.9585C134.32 68.0017 133.965 69.2102 133.865 70.3386C133.771 71.4765 133.997 72.5445 134.36 73.4414C135.107 75.2563 136.41 76.3199 137.35 76.8477C138.308 77.3849 138.922 77.5072 138.906 77.5531C138.906 77.5531 138.28 77.4854 137.278 76.9787C136.298 76.48 134.922 75.4186 134.112 73.5462C133.72 72.6209 133.466 71.5093 133.552 70.3175C133.642 69.136 134.002 67.8649 134.776 66.7612C135.147 66.2014 135.621 65.6903 136.167 65.2499C136.708 64.8015 137.334 64.428 138.016 64.163C139.37 63.6024 140.956 63.4976 142.462 63.8754C143.961 64.2788 145.296 65.1429 146.204 66.2917C146.671 66.8551 147.035 67.4856 147.289 68.1408C147.553 68.7924 147.718 69.4687 147.768 70.1384C147.907 71.4794 147.603 72.7651 147.106 73.8403C146.6 74.9221 145.838 75.7702 145.045 76.3876C143.426 77.6288 141.707 77.8858 140.607 77.8436C139.486 77.7984 138.906 77.5531 138.906 77.5531Z" fill="#E0E0E0"/>
<path d="M154.441 80.4054L159.484 71.6286C160.963 69.0551 164.248 68.1677 166.822 69.6462L167.294 69.9178C169.867 71.3964 170.755 74.6818 169.276 77.2553L164.233 86.0321C162.755 88.6055 159.469 89.493 156.896 88.0144L156.424 87.7429C153.85 86.2636 152.962 82.9788 154.441 80.4054Z" fill="#EBEBEB"/>
<path d="M154.441 80.4047C154.495 80.4236 154.005 81.0781 153.837 82.4547C153.765 83.1368 153.825 83.9952 154.161 84.9088C154.34 85.3594 154.584 85.8202 154.915 86.2592C155.255 86.6902 155.678 87.0942 156.185 87.4299C156.701 87.7516 157.267 88.0989 157.889 88.302C158.517 88.5117 159.21 88.6085 159.92 88.5583C161.338 88.4651 162.819 87.724 163.763 86.4296C165.435 83.637 167.208 80.4425 169.111 77.1614C170.031 75.5635 170.009 73.5411 169.136 72.0392C168.721 71.277 168.107 70.6524 167.405 70.2046C166.684 69.7453 165.958 69.3514 165.166 69.2109C163.597 68.8913 161.998 69.3347 160.894 70.2287C159.753 71.1001 159.246 72.4301 158.576 73.477C157.327 75.5991 156.31 77.3289 155.582 78.5657C155.237 79.1379 154.961 79.5944 154.752 79.9395C154.56 80.251 154.452 80.4112 154.441 80.4047C154.429 80.3981 154.514 80.2248 154.686 79.9002C154.879 79.5463 155.135 79.0775 155.455 78.4907C156.157 77.2393 157.139 75.4899 158.344 73.3423C158.652 72.7992 158.973 72.2314 159.308 71.6403C159.648 71.0375 160.108 70.4529 160.698 69.9819C161.861 69.0231 163.557 68.5361 165.235 68.8673C166.079 69.0115 166.871 69.4366 167.599 69.8982C168.351 70.3735 169.012 71.0419 169.459 71.8565C170.4 73.4625 170.428 75.6355 169.44 77.3492C167.527 80.6456 165.776 83.7877 164.045 86.6356C163.028 88.0123 161.444 88.7876 159.942 88.872C159.188 88.9179 158.455 88.8072 157.795 88.5786C157.124 88.3471 156.569 87.9948 156.036 87.6519C155.508 87.2923 155.071 86.8613 154.723 86.4048C154.384 85.9396 154.139 85.4541 153.962 84.9816C153.632 84.0243 153.595 83.1354 153.69 82.4372C153.785 81.734 154.007 81.2251 154.153 80.888C154.33 80.5634 154.43 80.3988 154.441 80.4047Z" fill="#E0E0E0"/>
<path d="M139.391 100.128C139.391 100.128 154.162 142.075 160.011 151C165.862 159.923 192.549 182.92 196.642 181.706C200.734 180.492 201.454 179.165 198.496 174.391C195.539 169.617 177.4 152.776 174.708 148.608C172.015 144.44 153.007 95.0258 153.007 95.0258L139.391 100.128Z" fill="#E0E0E0"/>
<path d="M147.779 88.6915L138.299 92.2405C135.519 93.2808 134.109 96.3785 135.15 99.158L135.34 99.6676C136.381 102.447 139.478 103.857 142.258 102.817L151.738 99.2679C154.518 98.2268 155.927 95.1299 154.887 92.3504L154.696 91.8408C153.656 89.0613 150.558 87.6512 147.779 88.6915Z" fill="#EBEBEB"/>
<path d="M147.779 88.6915C147.775 88.6798 147.954 88.6078 148.303 88.4862C148.66 88.3966 149.197 88.2605 149.907 88.2816C150.612 88.3005 151.483 88.4825 152.373 88.963C152.81 89.2149 153.25 89.536 153.654 89.9451C154.048 90.363 154.402 90.8653 154.671 91.444C154.922 92.0257 155.18 92.6307 155.299 93.3303C155.418 94.019 155.408 94.7601 155.239 95.4961C154.912 96.9652 153.89 98.4023 152.366 99.1812C149.275 100.426 145.89 101.643 142.326 102.994C140.474 103.692 138.335 103.31 136.903 102.121C136.172 101.548 135.62 100.787 135.273 99.9675C134.936 99.1732 134.646 98.3229 134.641 97.4668C134.586 95.7574 135.343 94.1631 136.477 93.1716C137.038 92.6664 137.69 92.3075 138.34 92.0694C138.977 91.835 139.59 91.61 140.176 91.3953C142.491 90.5559 144.377 89.8716 145.725 89.3823C146.356 89.1618 146.86 88.9856 147.241 88.8531C147.589 88.7352 147.775 88.6798 147.779 88.6915C147.783 88.7039 147.608 88.7832 147.269 88.9237C146.894 89.0737 146.399 89.2717 145.778 89.5199C144.44 90.0368 142.567 90.759 140.27 91.6464C139.129 92.1371 137.734 92.421 136.689 93.4053C135.627 94.3495 134.929 95.855 134.99 97.4551C135 98.2589 135.27 99.0393 135.607 99.8255C135.934 100.591 136.451 101.298 137.136 101.831C138.475 102.938 140.468 103.289 142.194 102.64C145.741 101.295 149.181 100.066 152.209 98.8704C153.639 98.1489 154.612 96.8087 154.934 95.4255C155.1 94.7331 155.116 94.0328 155.012 93.3798C154.912 92.7326 154.662 92.1174 154.428 91.5562C154.18 91.0014 153.85 90.518 153.481 90.1125C153.101 89.715 152.686 89.3998 152.271 89.1487C151.424 88.6696 150.587 88.4709 149.902 88.4301C148.514 88.3719 147.789 88.749 147.779 88.6915Z" fill="#E0E0E0"/>
<path d="M520.342 330.126C520.342 330.231 409.368 330.315 272.505 330.315C135.595 330.315 24.645 330.23 24.645 330.126C24.645 330.022 135.596 329.937 272.505 329.937C409.368 329.937 520.342 330.021 520.342 330.126Z" fill="#263238"/>
<path d="M63.3469 246.841C63.5486 246.231 86.2316 172.079 86.2316 172.079L85.6638 162.87L91.5962 153.102L98.9651 155.536L97.9568 166.486L92.7195 174.448L69.8705 248.948L63.3469 246.841Z" fill="#E0E0E0"/>
<path d="M63.3469 246.841C63.3469 246.841 63.4998 246.882 63.7845 246.969C64.0786 247.06 64.4964 247.189 65.0446 247.36C66.1548 247.709 67.7797 248.221 69.8909 248.885L69.8065 248.929C73.4967 236.831 82.0325 208.849 92.5426 174.393L92.5506 174.368L92.5652 174.345C94.2236 171.823 95.9992 169.121 97.8003 166.382L97.7704 166.468C98.0915 162.975 98.4322 159.27 98.7772 155.518L98.9068 155.715C98.7146 155.652 98.5064 155.582 98.2975 155.514C96.0247 154.763 93.77 154.019 91.538 153.281L91.7586 153.2C89.742 156.519 87.7597 159.781 85.8239 162.966L85.8509 162.858C86.0431 165.998 86.2316 169.071 86.4143 172.066L86.4165 172.1L86.4071 172.131C79.7772 193.673 74.0354 212.331 69.947 225.616C67.8911 232.258 66.2516 237.554 65.1218 241.203C64.5554 243.019 64.1172 244.422 63.8172 245.384C63.668 245.854 63.5544 246.213 63.4736 246.467C63.395 246.713 63.3469 246.841 63.3469 246.841C63.3469 246.841 63.3753 246.722 63.4445 246.483C63.5187 246.231 63.6228 245.876 63.7597 245.413C64.0473 244.456 64.4659 243.06 65.0075 241.255C66.1111 237.608 67.7135 232.315 69.722 225.676C73.7792 212.351 79.4772 193.635 86.0562 172.026L86.0489 172.09C85.8632 169.095 85.6725 166.022 85.4774 162.882L85.4738 162.824L85.5043 162.774C87.4386 159.587 89.4195 156.323 91.4346 153.004L91.5125 152.875L91.6552 152.922C93.8873 153.659 96.1426 154.404 98.4147 155.154C98.6229 155.223 98.8318 155.292 99.024 155.355L99.1674 155.403L99.1536 155.552C98.8078 159.305 98.4664 163.009 98.1439 166.502L98.1395 166.55L98.1133 166.589C96.3108 169.327 94.5337 172.027 92.8739 174.549L92.8964 174.502C82.2815 208.925 73.6605 236.881 69.9331 248.968L69.9128 249.034L69.8487 249.012C67.7324 248.311 66.1031 247.771 64.99 247.402C64.4528 247.222 64.0422 247.083 63.7539 246.986C63.4794 246.892 63.3469 246.841 63.3469 246.841Z" fill="#263238"/>
<path d="M57.8717 250.445L47.6841 264.222L33.4371 315.9C33.4371 315.9 31.3885 326.441 43.0329 329.436C56.1078 332.799 59.1239 322.784 59.1239 322.784L72.9763 272.311L72.7688 254.796L76.1882 250.945C76.8762 250.171 76.5464 248.945 75.5628 248.619L59.2047 243.217C58.2161 242.891 57.218 243.688 57.3184 244.724L57.8717 250.445Z" fill="#5EA8FF"/>
<path d="M72.8845 255.405C72.8532 255.505 69.4243 254.506 65.2274 253.174C61.029 251.841 57.6518 250.681 57.6838 250.581C57.7151 250.481 61.1433 251.48 65.3424 252.812C69.5386 254.144 72.9165 255.305 72.8845 255.405Z" fill="#263238"/>
<path d="M72.9762 272.311C72.9697 272.337 72.6071 272.271 71.9556 272.132C71.3033 271.993 70.3656 271.771 69.2103 271.481C66.8996 270.9 63.7255 270.021 60.261 268.916C56.7964 267.809 53.6995 266.685 51.4806 265.819C50.3704 265.387 49.4779 265.023 48.8663 264.758C48.2541 264.495 47.9207 264.338 47.9301 264.314C47.9396 264.289 48.2919 264.4 48.9202 264.621C49.6147 264.868 50.5065 265.186 51.5752 265.568C53.816 266.369 56.9195 267.449 60.3775 268.555C63.8347 269.658 66.9906 270.576 69.2802 271.222C70.3722 271.53 71.2829 271.788 71.9927 271.988C72.6319 272.172 72.9828 272.286 72.9762 272.311Z" fill="#263238"/>
<g opacity="0.3">
<path d="M38.5637 317.366L38.2143 317.262C36.941 316.885 36.2145 315.547 36.5916 314.274L49.3818 271.075C49.7589 269.802 51.097 269.075 52.3702 269.452L52.7197 269.556C53.9929 269.933 54.7195 271.271 54.3424 272.544L41.5521 315.743C41.175 317.016 39.837 317.743 38.5637 317.366Z" fill="black"/>
</g>
<g opacity="0.3">
<path d="M45.8254 319.757L45.476 319.654C44.2027 319.277 43.4762 317.939 43.8533 316.665L56.6435 273.467C57.0206 272.193 58.3587 271.467 59.6319 271.844L59.9814 271.947C61.2547 272.324 61.9812 273.662 61.6041 274.936L48.8139 318.135C48.4375 319.407 47.0994 320.134 45.8254 319.757Z" fill="black"/>
</g>
<g opacity="0.3">
<path d="M53.5344 322.04L53.185 321.936C51.9117 321.559 51.1852 320.221 51.5623 318.948L64.3525 275.749C64.7296 274.476 66.0677 273.749 67.3409 274.125L67.6904 274.229C68.9636 274.606 69.6902 275.944 69.3131 277.217L56.5228 320.416C56.1465 321.69 54.8084 322.417 53.5344 322.04Z" fill="black"/>
</g>
<path d="M92.6497 174.426C92.6155 174.525 91.1639 174.113 89.4072 173.505C87.6505 172.897 86.2542 172.325 86.2885 172.226C86.3227 172.127 87.7743 172.539 89.531 173.147C91.2876 173.755 92.6839 174.327 92.6497 174.426Z" fill="#263238"/>
<path d="M98.9658 155.535C98.9876 155.542 98.8959 155.902 98.7095 156.556C98.4991 157.263 98.2217 158.199 97.8825 159.34C97.1319 161.757 96.1127 165.038 94.9523 168.774L94.8955 168.956L94.7142 168.892C93.6317 168.515 92.5106 168.124 91.3611 167.724C90.1744 167.308 89.0169 166.901 87.9067 166.512L87.7422 166.454L87.7888 166.288C88.8422 162.546 89.7653 159.265 90.4452 156.849C90.7794 155.716 91.0531 154.79 91.2599 154.088C91.4572 153.443 91.5758 153.095 91.5977 153.101C91.6195 153.107 91.5438 153.467 91.3851 154.122C91.2053 154.831 90.9672 155.768 90.6768 156.912C90.0296 159.337 89.1494 162.63 88.1462 166.386L88.029 166.162C89.1407 166.549 90.2989 166.952 91.4863 167.366C92.6351 167.769 93.7555 168.162 94.8373 168.541L94.5992 168.66C95.8092 164.939 96.872 161.672 97.6539 159.266C98.0361 158.138 98.3491 157.214 98.5865 156.516C98.8107 155.875 98.9439 155.528 98.9658 155.535Z" fill="#263238"/>
<path d="M313.694 81.4792C313.114 81.4792 312.53 81.3845 311.968 81.1894L303.055 78.1005C301.276 77.4839 299.949 75.9529 299.593 74.1038L297.812 64.8386C297.455 62.9894 298.119 61.0748 299.544 59.8416L306.675 53.6667C308.098 52.4349 310.089 52.052 311.867 52.6679L320.781 55.7568C322.561 56.3734 323.888 57.9058 324.243 59.7557L326.025 69.018C326.38 70.8693 325.716 72.7832 324.292 74.015L317.161 80.1892C316.188 81.0329 314.948 81.4792 313.694 81.4792ZM305.253 72.6981L313.582 75.5838L320.246 69.8137L318.581 61.1578L310.252 58.2713L303.588 64.0414L305.253 72.6981Z" fill="#E0E0E0"/>
<path d="M305.253 72.698C305.243 72.7075 305.193 72.5088 305.105 72.1222C305.014 71.6949 304.892 71.1263 304.74 70.415C304.426 68.8731 303.988 66.7146 303.45 64.0691C303.44 64.0188 303.46 63.9671 303.496 63.9358C305.39 62.2818 307.648 60.3089 310.134 58.1373C310.184 58.0936 310.252 58.0835 310.31 58.1038C312.888 58.9935 315.705 59.9661 318.641 60.9794C318.531 60.852 318.794 61.1542 318.767 61.1243L318.768 61.1265L318.768 61.1309L318.77 61.1396L318.774 61.1578L318.78 61.1935L318.794 61.2648L318.822 61.4075L318.876 61.6914L318.985 62.2571C319.057 62.6334 319.129 63.0076 319.2 63.3796C319.342 64.1229 319.483 64.8575 319.622 65.5818C319.898 67.0291 320.165 68.4327 320.422 69.7817C320.434 69.8465 320.409 69.9105 320.364 69.9506C317.858 72.1011 315.595 74.0434 313.675 75.6916C313.637 75.7258 313.582 75.7338 313.537 75.7185C310.996 74.8078 308.922 74.0645 307.44 73.5338C306.758 73.2812 306.213 73.0795 305.803 72.9274C305.432 72.7854 305.243 72.7075 305.253 72.698C305.264 72.6893 305.474 72.749 305.862 72.8713C306.283 73.0074 306.842 73.1887 307.543 73.4151C309.021 73.9102 311.091 74.6025 313.628 75.4513L313.49 75.4776C315.396 73.8133 317.642 71.8507 320.128 69.679L320.07 69.8479C319.808 68.4997 319.536 67.0968 319.255 65.651C319.115 64.9274 318.973 64.1936 318.829 63.4503C318.758 63.0783 318.685 62.7048 318.613 62.3284L318.503 61.7628L318.449 61.4788L318.421 61.3369L318.407 61.2655L318.401 61.2299L318.397 61.2124L318.396 61.2037L318.395 61.1993L318.394 61.1971C318.367 61.1651 318.629 61.4672 318.517 61.3391C315.583 60.3184 312.768 59.3392 310.192 58.4431L310.367 58.4096C307.863 60.5594 305.587 62.5126 303.679 64.1506L303.725 64.0174C304.203 66.6498 304.592 68.7974 304.87 70.3313C304.994 71.0571 305.093 71.6366 305.168 72.0727C305.234 72.4731 305.264 72.6893 305.253 72.698Z" fill="#263238"/>
<path d="M313.694 81.4792C313.693 81.4596 314.01 81.4719 314.595 81.3627C315.171 81.2499 316.04 80.9907 316.923 80.2904C318.651 78.7769 321.119 76.6154 324.16 73.9517C324.917 73.3089 325.507 72.4047 325.79 71.3629C325.927 70.8417 325.987 70.2891 325.958 69.73C325.924 69.1767 325.776 68.6038 325.67 68.0156C325.213 65.6692 324.725 63.1642 324.212 60.5281C324.084 59.8613 323.979 59.2112 323.683 58.6106C323.404 58.0078 323 57.4545 322.5 56.9951C322 56.535 321.401 56.1747 320.749 55.9424C320.071 55.708 319.387 55.4714 318.696 55.2326C317.315 54.7551 315.91 54.2688 314.483 53.7752C313.769 53.5284 313.051 53.2794 312.328 53.029C311.602 52.7538 310.902 52.5645 310.142 52.5689C309.395 52.5732 308.652 52.7334 307.983 53.0464C307.3 53.3457 306.755 53.8371 306.181 54.3423C305.039 55.3302 303.914 56.3028 302.809 57.2594C301.705 58.2152 300.62 59.1544 299.559 60.0738C298.55 60.9875 297.962 62.2913 297.899 63.5879C297.85 64.2402 297.989 64.867 298.114 65.5171C298.237 66.1599 298.357 66.794 298.476 67.4194C298.714 68.6693 298.944 69.8836 299.166 71.0572C299.394 72.2249 299.591 73.378 299.821 74.4402C300.102 75.4819 300.695 76.3876 301.45 77.0275C301.826 77.35 302.239 77.6106 302.667 77.8065C303.093 77.9972 303.551 78.137 303.979 78.2935C304.841 78.5978 305.655 78.8846 306.417 79.154C307.932 79.692 309.24 80.1564 310.319 80.5401C311.394 80.9085 312.206 81.2637 312.792 81.3635C313.377 81.4719 313.694 81.4603 313.694 81.4792C313.694 81.4792 313.377 81.5251 312.779 81.4384C312.175 81.3605 311.35 81.0249 310.271 80.6791C309.186 80.313 307.87 79.8681 306.348 79.3542C305.583 79.0936 304.766 78.8162 303.901 78.5214C303.468 78.3677 303.021 78.2382 302.563 78.0394C302.11 77.8378 301.674 77.5677 301.277 77.2321C300.478 76.5659 299.843 75.6166 299.539 74.5166C299.292 73.4137 299.095 72.2919 298.858 71.1161C298.63 69.9433 298.393 68.7305 298.15 67.482C298.029 66.8573 297.906 66.2232 297.78 65.5811C297.656 64.95 297.501 64.2664 297.552 63.5697C297.614 62.1843 298.237 60.788 299.316 59.8059C300.379 58.8821 301.463 57.9386 302.568 56.9784C303.672 56.0203 304.796 55.0463 305.937 54.0569C306.227 53.8101 306.497 53.5611 306.812 53.3136C307.126 53.0763 307.466 52.871 307.825 52.7028C308.544 52.3665 309.342 52.194 310.144 52.1896C310.943 52.1787 311.752 52.4029 312.454 52.6715C313.177 52.922 313.895 53.1717 314.608 53.4192C316.034 53.9142 317.439 54.402 318.82 54.8817C319.51 55.122 320.195 55.3608 320.872 55.5966C321.571 55.8471 322.213 56.2351 322.746 56.7294C323.281 57.2223 323.711 57.8156 324.008 58.4613C324.322 59.1041 324.435 59.8139 324.557 60.4626C325.058 63.1001 325.535 65.6081 325.981 67.9566C326.082 68.5427 326.229 69.1141 326.263 69.714C326.291 70.3066 326.223 70.8912 326.075 71.4408C325.769 72.5394 325.135 73.4901 324.338 74.1555C321.261 76.7829 318.765 78.9145 317.016 80.4076C316.093 81.1094 315.199 81.3489 314.61 81.4392C314.01 81.5243 313.694 81.4792 313.694 81.4792Z" fill="#263238"/>
<path d="M251.645 66.3237C250.492 66.3237 249.382 65.8018 248.651 64.8889L246.108 61.7184C245.255 60.6534 245.032 59.2017 245.528 57.9299L247.002 54.1429C247.498 52.871 248.644 51.953 249.992 51.7463L254.009 51.1304C255.359 50.9251 256.726 51.4565 257.58 52.5209L260.122 55.692C260.975 56.7564 261.198 58.208 260.703 59.4798L259.228 63.2676C258.733 64.5394 257.588 65.4574 256.238 65.6649L252.221 66.2808C252.029 66.3092 251.836 66.3237 251.645 66.3237ZM254.59 53.998C254.544 53.998 254.498 54.0016 254.451 54.0089L250.435 54.6248C250.111 54.6743 249.836 54.8949 249.716 55.2006L248.242 58.987C248.123 59.2927 248.177 59.6414 248.381 59.897L250.923 63.0674C251.129 63.3237 251.457 63.4511 251.781 63.4016L255.798 62.7857C256.122 62.7362 256.397 62.5156 256.516 62.2105L257.992 58.4235C258.11 58.1185 258.056 57.7697 257.852 57.5142L255.31 54.3438C255.133 54.1232 254.866 53.998 254.59 53.998Z" fill="#E0E0E0"/>
<path d="M254.59 53.9979C254.588 53.9892 254.699 53.9594 254.903 54.0125C255.003 54.0416 255.126 54.094 255.246 54.1945C255.368 54.3001 255.464 54.4347 255.591 54.5782C256.122 55.2159 256.819 56.0524 257.66 57.0621C257.77 57.1968 257.881 57.3344 257.995 57.4741C258.117 57.6409 258.189 57.8476 258.197 58.0631C258.212 58.2808 258.121 58.5035 258.056 58.6703C257.987 58.8515 257.917 59.0357 257.846 59.2228C257.558 59.9763 257.253 60.7764 256.932 61.6157C256.852 61.8261 256.769 62.0394 256.687 62.2549C256.596 62.5075 256.397 62.7376 256.145 62.8613C255.87 62.9924 255.627 62.9822 255.396 63.0317C255.158 63.0688 254.917 63.1067 254.675 63.1445C253.692 63.2916 252.73 63.4598 251.642 63.6003C251.328 63.601 251.018 63.4634 250.813 63.2297C250.65 63.0266 250.487 62.8249 250.327 62.6247C250.01 62.2287 249.698 61.8385 249.392 61.4549C249.086 61.0712 248.786 60.6941 248.491 60.3243L248.272 60.0484C248.194 59.9574 248.111 59.8256 248.068 59.6996C247.972 59.4419 247.984 59.1471 248.085 58.9054C248.417 58.0697 248.733 57.2739 249.031 56.5241C249.179 56.1528 249.323 55.7932 249.462 55.4459C249.537 55.28 249.581 55.098 249.708 54.9203C249.829 54.7529 249.996 54.6284 250.177 54.5571C251.577 54.3008 252.637 54.2018 253.405 54.0933C254.162 54.0001 254.588 53.9608 254.59 53.9979C254.588 54.0132 254.489 54.0249 254.291 54.0715C254.05 54.1188 253.766 54.1741 253.428 54.2396C252.693 54.3852 251.553 54.549 250.279 54.8053C250.145 54.8621 250.023 54.9575 249.937 55.0827C249.854 55.1977 249.807 55.3768 249.735 55.5522C249.603 55.9017 249.466 56.2642 249.324 56.6384C249.037 57.3919 248.731 58.192 248.41 59.0321C248.34 59.2082 248.337 59.4004 248.402 59.5766C248.456 59.7411 248.629 59.9042 248.774 60.0971C249.071 60.4648 249.374 60.8404 249.682 61.2219C249.99 61.6048 250.303 61.9936 250.621 62.3889C250.779 62.584 250.937 62.7798 251.096 62.9771C251.231 63.1307 251.436 63.221 251.643 63.221C252.662 63.0688 253.657 62.9203 254.62 62.7769C254.862 62.7405 255.103 62.7041 255.341 62.6684C255.58 62.624 255.832 62.6189 255.985 62.5367C256.156 62.4522 256.288 62.3066 256.356 62.1253C256.441 61.9106 256.525 61.698 256.608 61.4883C256.94 60.6533 257.256 59.8569 257.554 59.1078C257.628 58.9221 257.702 58.7387 257.774 58.5589C257.853 58.3681 257.912 58.2305 257.906 58.0697C257.904 57.9131 257.855 57.7595 257.768 57.635C257.66 57.4967 257.555 57.3606 257.452 57.2281C256.649 56.187 255.985 55.3251 255.478 54.6684C255.084 53.9754 254.571 54.0322 254.59 53.9979Z" fill="#263238"/>
<path d="M251.645 66.3237C251.645 66.3106 251.814 66.2851 252.13 66.2487C252.486 66.1869 252.947 66.1061 253.52 66.0063C254.14 65.9022 254.876 65.7785 255.723 65.6358C256.156 65.5622 256.608 65.5098 257.048 65.3147C257.491 65.1342 257.919 64.8488 258.289 64.4702C258.659 64.088 258.958 63.6185 259.151 63.0623C259.365 62.5025 259.587 61.9215 259.817 61.3209C260.213 60.103 261.028 58.8595 260.733 57.4669C260.613 56.7782 260.296 56.139 259.798 55.577C259.322 54.9859 258.837 54.3823 258.343 53.7686C258.096 53.4614 257.847 53.1513 257.596 52.839C257.347 52.5179 257.098 52.2457 256.782 52.0105C256.164 51.5453 255.382 51.2767 254.587 51.2781C254.196 51.2709 253.792 51.3626 253.379 51.4187C252.971 51.4813 252.565 51.5431 252.162 51.6043C251.362 51.7288 250.572 51.8511 249.797 51.9719C249.065 52.1335 248.396 52.5179 247.904 53.0479C247.658 53.3122 247.452 53.6092 247.295 53.9259C247.144 54.2367 247.02 54.5978 246.884 54.9298C246.619 55.6039 246.36 56.2613 246.108 56.9005C245.872 57.547 245.562 58.1476 245.471 58.7525C245.262 59.9945 245.739 61.1513 246.464 61.9477C247.138 62.8046 247.75 63.5828 248.293 64.273C248.568 64.6129 248.796 64.9485 249.058 65.1975C249.319 65.4516 249.591 65.6496 249.853 65.7959C250.926 66.3718 251.66 66.2684 251.645 66.3237C251.645 66.3303 251.603 66.3354 251.519 66.3397C251.436 66.3448 251.311 66.3427 251.149 66.3288C250.827 66.2982 250.34 66.2131 249.783 65.9255C249.505 65.7835 249.214 65.5863 248.933 65.3278C248.645 65.0694 248.407 64.7352 248.127 64.4054C247.572 63.7255 246.945 62.9589 246.255 62.1152C245.5 61.3187 244.94 60.044 245.159 58.7038C245.258 58.0253 245.57 57.421 245.797 56.7789C246.044 56.1375 246.298 55.4787 246.558 54.8024C246.695 54.4624 246.805 54.1268 246.975 53.7679C247.145 53.4192 247.369 53.0916 247.639 52.7997C248.177 52.2151 248.91 51.7885 249.718 51.6079C250.517 51.4667 251.296 51.359 252.106 51.2301C252.508 51.1682 252.914 51.1056 253.322 51.043C253.725 50.9884 254.14 50.8916 254.588 50.8974C255.467 50.896 256.328 51.1922 257.009 51.7069C257.349 51.9581 257.649 52.2893 257.889 52.6031C258.139 52.9162 258.388 53.227 258.634 53.535C259.125 54.1508 259.608 54.7565 260.082 55.3491C260.59 55.9242 260.96 56.6617 261.078 57.4057C261.209 58.1519 261.113 58.9149 260.845 59.5752C260.593 60.2129 260.348 60.8332 260.111 61.433C259.874 62.0314 259.645 62.6095 259.424 63.1664C259.217 63.7401 258.882 64.2584 258.481 64.6559C257.681 65.4778 256.611 65.7741 255.757 65.8425C254.906 65.9605 254.166 66.0631 253.544 66.149C252.936 66.2276 252.466 66.2975 252.142 66.3215C251.814 66.3368 251.645 66.3368 251.645 66.3237Z" fill="#263238"/>
<path d="M322.568 56.8197C322.643 56.8852 321.832 57.9787 320.694 59.2192C319.554 60.4619 318.469 61.3071 318.402 61.2285C318.332 61.1484 319.287 60.1911 320.415 58.9615C321.544 57.7326 322.485 56.7476 322.568 56.8197Z" fill="#263238"/>
<path d="M308.917 52.6337C309.013 52.6002 309.514 53.8152 309.891 55.387C310.271 56.9587 310.377 58.2684 310.276 58.2822C310.17 58.2982 309.897 57.0279 309.522 55.4758C309.15 53.923 308.815 52.6679 308.917 52.6337Z" fill="#263238"/>
<path d="M303.49 63.8965C303.448 63.9963 302.221 63.5646 300.692 63.0943C299.164 62.6189 297.907 62.2811 297.929 62.1755C297.948 62.0758 299.255 62.2505 300.804 62.7325C302.353 63.2093 303.53 63.8034 303.49 63.8965Z" fill="#263238"/>
<path d="M301.935 76.5252C301.855 76.4582 302.521 75.5278 303.424 74.4475C304.326 73.3671 305.123 72.5459 305.204 72.6129C305.284 72.6799 304.618 73.6103 303.715 74.6906C302.812 75.771 302.015 76.5929 301.935 76.5252Z" fill="#263238"/>
<path d="M314.197 80.5131C314.094 80.5292 313.865 79.4779 313.685 78.1653C313.505 76.852 313.444 75.7782 313.548 75.7659C313.652 75.7535 313.881 76.8047 314.061 78.1137C314.24 79.4226 314.301 80.4971 314.197 80.5131Z" fill="#263238"/>
<path d="M324.554 71.1839C324.516 71.2814 323.554 71.0026 322.406 70.5614C321.258 70.1202 320.357 69.6827 320.395 69.5852C320.433 69.4876 321.394 69.7657 322.543 70.2076C323.691 70.6488 324.592 71.0856 324.554 71.1839Z" fill="#263238"/>
<path d="M469.077 127.005C474.012 121.069 478.939 115.07 482.778 108.373C486.618 101.676 489.351 94.1894 489.532 86.4726C489.559 85.3027 489.054 77.1796 487.93 76.8557C487.126 76.6234 486.575 83.7935 485.916 84.3089C479.631 89.2295 475.545 96.5321 473.196 104.161C470.846 111.789 469.735 119.05 469.077 127.005Z" fill="#263238"/>
<path d="M404.879 172.158C406.845 167.072 416.516 141.611 416.478 141.596C416.478 141.596 399.799 132.915 405.524 115.241C408.291 106.704 415.417 89.5862 422.046 74.1708C429.171 57.6023 447.829 49.2907 464.917 55.0608L466.614 55.6337C484.565 62.8868 488.433 82.1832 480.686 99.926L445.038 182.554L413.781 172.893L404.879 172.158Z" fill="#FFBF9D"/>
<path d="M416.478 141.597C416.478 141.597 427.352 145.994 441.681 142.56C441.681 142.56 431.765 153.762 414.738 146.247L416.478 141.597Z" fill="#FF9A6C"/>
<path d="M422.041 91.1674C421.545 92.4785 422.248 93.9797 423.608 94.522C424.966 95.0629 426.469 94.442 426.965 93.1308C427.46 91.8197 426.758 90.3178 425.401 89.7762C424.041 89.2331 422.536 89.8563 422.041 91.1674Z" fill="#263238"/>
<path d="M423.341 82.7467C423.542 83.1798 425.922 82.4132 428.624 83.3334C431.337 84.2143 432.852 86.276 433.257 86.0438C433.45 85.9462 433.333 85.2466 432.681 84.3257C432.042 83.412 430.797 82.3128 429.109 81.7507C427.42 81.1916 425.795 81.3329 424.765 81.6925C423.719 82.0507 423.238 82.5479 423.341 82.7467Z" fill="#263238"/>
<path d="M445.769 100.708C445.274 102.019 445.976 103.52 447.336 104.062C448.693 104.603 450.196 103.982 450.692 102.671C451.187 101.359 450.486 99.8576 449.128 99.316C447.768 98.7736 446.264 99.3968 445.769 100.708Z" fill="#263238"/>
<path d="M449.465 92.7873C449.666 93.2204 452.049 92.456 454.749 93.3755C457.461 94.2564 458.976 96.318 459.382 96.0858C459.575 95.9875 459.46 95.2901 458.805 94.3685C458.167 93.4541 456.921 92.3548 455.234 91.7928C453.547 91.2337 451.92 91.3749 450.891 91.7346C449.846 92.092 449.362 92.5892 449.465 92.7873Z" fill="#263238"/>
<path d="M432.745 110.293C432.81 110.144 431.226 109.286 428.62 108.018C427.953 107.713 427.345 107.355 427.388 106.845C427.394 106.292 427.934 105.644 428.541 104.953C429.755 103.5 431.025 101.979 432.359 100.384C437.724 93.8545 441.856 88.3909 441.592 88.1768C441.327 87.9628 436.763 93.0821 431.399 99.6122C430.093 101.228 428.846 102.768 427.655 104.242C427.13 104.939 426.379 105.677 426.382 106.832C426.394 107.411 426.775 107.957 427.176 108.225C427.573 108.51 427.96 108.649 428.295 108.784C430.986 109.857 432.682 110.443 432.745 110.293Z" fill="#263238"/>
<path d="M440.073 114.852C439.641 114.678 438.645 117.612 435.428 118.847C432.214 120.09 429.196 118.704 429.034 119.107C428.932 119.277 429.539 119.912 430.848 120.394C432.128 120.876 434.162 121.099 436.129 120.344C438.094 119.583 439.328 118.101 439.836 116.93C440.361 115.741 440.28 114.903 440.073 114.852Z" fill="#263238"/>
<path d="M453.32 81.8622C453.339 82.6877 456.157 83.2512 459.201 84.705C462.274 86.0977 464.519 87.8907 465.163 87.3739C465.458 87.122 465.245 86.2789 464.451 85.2175C463.665 84.1605 462.257 82.9323 460.424 82.0769C458.59 81.2252 456.743 80.9391 455.429 81.0184C454.105 81.0949 453.322 81.4749 453.32 81.8622Z" fill="#263238"/>
<path d="M427.495 74.133C427.764 74.9083 429.842 74.8996 432.093 75.6261C434.368 76.274 436.091 77.4359 436.744 76.9409C437.04 76.6941 436.95 75.9777 436.317 75.1165C435.696 74.2611 434.489 73.3263 432.934 72.8531C431.378 72.3821 429.856 72.4884 428.864 72.8546C427.86 73.2186 427.387 73.7631 427.495 74.133Z" fill="#263238"/>
<path d="M474.848 112.474C475.192 112.445 488.149 112.98 483.702 124.883C479.254 136.786 468.222 129.866 468.329 129.516C468.435 129.168 474.848 112.474 474.848 112.474Z" fill="#FFBF9D"/>
<path d="M473.649 126.366C473.716 126.347 473.803 126.589 474.093 126.88C474.376 127.164 474.924 127.492 475.631 127.491C477.061 127.5 478.866 125.899 479.726 123.775C480.16 122.704 480.319 121.587 480.254 120.59C480.216 119.583 479.881 118.764 479.289 118.415C478.713 118.034 478.123 118.245 477.853 118.526C477.569 118.799 477.556 119.065 477.485 119.062C477.44 119.08 477.304 118.767 477.584 118.312C477.721 118.093 477.966 117.865 478.331 117.741C478.703 117.615 479.167 117.654 479.59 117.867C480.484 118.273 480.995 119.426 481.067 120.521C481.188 121.639 481.035 122.904 480.546 124.107C479.574 126.478 477.507 128.263 475.601 128.117C474.682 128.022 474.078 127.509 473.822 127.093C473.563 126.662 473.6 126.372 473.649 126.366Z" fill="#FF9A6C"/>
<path d="M437.263 57.4647C435.749 55.6687 443.897 51.6618 449.436 51.332C457.809 50.8333 469.462 53.0195 475.321 57.4072C482.376 62.6895 487.441 69.1513 488.65 77.8814C489.859 86.6116 488.133 95.5791 484.745 103.715C483.712 106.198 482.448 108.714 480.293 110.321C477.63 112.308 473.816 112.74 472.567 116.412C472.111 117.753 471.221 118.944 469.946 119.56C466.89 121.037 465.066 117.849 464.68 115.205C463.856 109.557 465.694 103.899 467.508 98.4875C468.797 94.6415 470.126 90.7175 472.588 87.4932C473.926 85.7387 475.576 84.2281 476.816 82.4016C478.056 80.5758 478.869 78.2753 478.248 76.1568C478.147 75.8125 477.941 75.3473 477.658 74.8122C475.429 70.5789 471.064 67.8925 466.281 67.7659C458.694 67.5657 445.931 66.7176 443.821 63.3076C440.786 58.4009 440.577 55.8806 440.577 55.8806L437.263 57.4647Z" fill="#263238"/>
<path d="M476.862 50.1461C477.625 50.5334 495.514 61.5851 495.395 77.7009C495.277 93.8166 492.328 97.7631 492.328 97.7631C492.328 97.7631 493.218 98.834 493.754 100.201C494.235 101.426 491.49 105.573 489.136 104.189C473.075 89.2884 450.943 80.7308 425.696 72.9135L406.65 66.0966C401.08 64.8764 399.689 62.8082 402.41 62.2411C404.496 61.8064 421.794 60.9321 421.794 60.9321L425.529 59.7819L437.196 51.5467C437.196 51.5467 436.745 49.6874 439.113 49.0825C441.482 48.4775 461.799 42.5013 476.862 50.1461Z" fill="#5EA8FF"/>
<path d="M425.53 59.7819C425.53 59.7819 425.784 59.8831 426.274 60.0439C426.86 60.231 427.57 60.4582 428.426 60.7312C430.305 61.2895 432.981 62.2352 436.268 63.4473C442.809 65.9458 451.683 69.9069 460.838 75.4419C470.032 80.9164 477.843 86.6756 483.419 90.9192C486.214 93.0362 488.439 94.7965 489.986 96.0028C490.695 96.5546 491.283 97.0125 491.768 97.3903C492.178 97.7041 492.404 97.8563 492.404 97.8563C492.404 97.8563 492.206 97.6684 491.81 97.3372C491.336 96.9455 490.761 96.4716 490.068 95.9001C488.547 94.6625 486.343 92.8731 483.565 90.7299C478.024 86.4347 470.223 80.6362 461.012 75.1514C451.839 69.6055 442.925 65.6685 436.352 63.2231C429.755 60.8134 425.53 59.7819 425.53 59.7819Z" fill="#263238"/>
<g opacity="0.3">
<path d="M491.646 64.7548C491.646 64.7548 471.905 54.1872 460.999 55.4685C461.424 55.411 461.849 55.3527 462.273 55.2952C458.879 55.5777 455.485 55.8601 452.092 56.1433C450.373 56.2868 448.398 56.3377 447.215 55.0819C447.215 55.0819 453.397 52.4626 463.158 52.5128C472.919 52.5623 487.242 56.0647 491.646 64.7548Z" fill="black"/>
</g>
<path d="M491.912 64.9689C491.912 64.9689 491.468 64.2467 490.461 63.0979C489.458 61.952 487.902 60.357 485.672 58.77C483.461 57.1684 480.577 55.5828 477.157 54.4078C473.755 53.2342 469.763 52.3934 465.581 52.8004C463.496 52.9765 461.499 53.3871 459.58 53.7883C457.669 54.2236 455.812 54.5461 454.062 55.0324C452.326 55.5194 450.701 56.0574 449.121 56.2089C447.536 56.4309 446.093 56.0502 444.803 55.6345C439.641 53.939 436.852 51.7921 437.197 51.546C437.2 51.5329 437.182 51.7877 437.467 52.0927C437.747 52.3839 438.209 52.7705 438.862 53.1665C440.162 53.9681 442.14 54.9785 444.728 55.8631C446.005 56.2955 447.53 56.7061 449.15 56.4899C450.769 56.3457 452.42 55.8092 454.146 55.3345C455.869 54.8642 457.742 54.5446 459.65 54.1144C461.565 53.7184 463.551 53.3121 465.61 53.1389C469.735 52.7377 473.672 53.556 477.055 54.7041C480.452 55.8529 483.322 57.402 485.533 58.9665C487.763 60.515 489.334 62.0722 490.362 63.186C490.876 63.7451 491.258 64.195 491.507 64.5088C491.763 64.8175 491.912 64.9689 491.912 64.9689Z" fill="#263238"/>
<g opacity="0.3">
<path d="M495.141 84.3592C491.403 83.0451 488.894 81.0963 485.454 79.004C481.787 76.7749 478.096 74.7386 474.54 72.337C471.842 70.5141 468.571 68.5885 467.371 65.7733C466.555 67.2308 466.536 68.7989 467.301 70.2833C468.065 71.7677 471.31 74.3382 472.691 75.2774C480.561 80.6267 486.029 84.282 494.825 88.0043C495.065 87.0477 495.141 84.3592 495.141 84.3592Z" fill="black"/>
</g>
<path d="M495.334 75.9136C497.354 77.7591 498.572 78.9537 497.946 80.9994C497.425 82.7022 496.376 84.6438 494.617 84.3679C494.08 84.2841 493.598 84.0046 493.129 83.7301C485.103 79.0294 477.077 74.3287 469.051 69.628C468.237 69.1512 467.362 68.6038 467.052 67.7127C466.574 66.3419 467.77 64.8444 469.17 64.4636C470.57 64.0829 472.052 64.4986 473.433 64.9448C481.281 67.4826 488.44 71.3862 495.334 75.9136Z" fill="#5EA8FF"/>
<path d="M467.32 68.2289C467.369 68.2143 466.966 67.7885 467.012 66.8617C467.05 65.9903 467.661 64.5605 469.196 63.9621C470.741 63.4387 472.788 63.7895 474.794 64.5991C476.833 65.4159 479.068 66.3456 481.373 67.399C485.997 69.4905 489.99 71.7808 492.709 73.6903C494.08 74.6287 495.137 75.4594 495.868 76.0352C496.165 76.2755 496.439 76.4975 496.7 76.7079C496.893 76.8586 496.999 76.9343 497.006 76.9256C497.014 76.9168 496.924 76.8244 496.745 76.6562C496.496 76.4291 496.235 76.191 495.951 75.9333C495.245 75.3247 494.206 74.4613 492.846 73.4931C490.151 71.5245 486.152 69.1877 481.513 67.0896C479.199 66.0318 476.959 65.1109 474.906 64.3072C472.857 63.5042 470.752 63.1496 469.108 63.7379C467.468 64.4164 466.88 65.9408 466.877 66.8566C466.869 67.3356 466.994 67.6953 467.102 67.918C467.23 68.1335 467.313 68.234 467.32 68.2289Z" fill="#263238"/>
<path d="M433.535 54.1312L449.928 59.3822L446.977 63.4962L429.409 57.0439L433.535 54.1312Z" fill="white"/>
<path d="M453.191 77.0289C453.234 76.9452 446.333 73.4166 437.781 69.149C429.226 64.88 422.259 61.489 422.218 61.5727C422.176 61.6565 429.075 65.1844 437.63 69.4533C446.182 73.7209 453.15 77.1134 453.191 77.0289Z" fill="#263238"/>
<path d="M457.325 165.349L457.54 154.589L420.718 168.267C420.718 168.267 413.912 146.162 413.912 145.118L405.752 150.248L392.189 144.416L378.627 137.713L351.194 185.728L322.417 270.586L390.233 315.809L440.508 261.929L471.073 215.356L487.878 185.855L457.325 165.349Z" fill="#5EA8FF"/>
<path d="M417.444 168.111C417.423 168.111 417.404 167.735 417.388 167.035C417.378 166.282 417.366 165.271 417.35 164.018L417.516 164.123C414.698 165.49 410.462 167.952 406.428 171.716L406.133 171.991L406.11 171.589C406.083 171.11 406.054 170.6 406.026 170.084C405.73 164.806 405.484 160.027 405.325 156.567C405.255 154.878 405.198 153.492 405.156 152.469C405.145 152.019 405.136 151.651 405.129 151.353C405.127 151.098 405.133 150.964 405.145 150.963C405.158 150.962 405.178 151.096 405.205 151.349C405.231 151.646 405.263 152.013 405.302 152.461C405.374 153.482 405.472 154.866 405.591 156.552C405.819 160.009 406.107 164.784 406.403 170.062C406.431 170.578 406.46 171.089 406.487 171.567L406.169 171.439C410.245 167.648 414.548 165.212 417.415 163.913L417.585 163.836L417.581 164.018C417.551 165.271 417.528 166.282 417.511 167.035C417.49 167.736 417.466 168.111 417.444 168.111Z" fill="#263238"/>
<path d="M453.93 165.867C453.935 165.878 453.791 165.957 453.51 166.095C453.193 166.245 452.784 166.44 452.277 166.68C451.157 167.192 449.608 167.902 447.714 168.769C443.808 170.516 438.484 172.898 432.601 175.529C430.08 176.642 427.663 177.709 425.42 178.7L425.113 178.835L425.171 178.506C425.892 174.405 426.038 170.788 426.009 168.145L426.18 168.247C424.754 168.94 423.611 169.496 422.781 169.899C422.41 170.072 422.11 170.211 421.871 170.323C421.663 170.416 421.553 170.459 421.548 170.45C421.542 170.439 421.643 170.377 421.842 170.265C422.074 170.139 422.364 169.981 422.724 169.786C423.542 169.358 424.669 168.77 426.074 168.037L426.239 167.951L426.245 168.14C426.328 170.793 426.224 174.434 425.522 178.567L425.274 178.373C427.515 177.376 429.929 176.302 432.446 175.182C438.347 172.589 443.687 170.244 447.605 168.523C449.52 167.701 451.085 167.029 452.217 166.544C452.735 166.33 453.154 166.157 453.478 166.023C453.769 165.909 453.924 165.854 453.93 165.867Z" fill="#263238"/>
<path d="M389.555 325.24H112.255C106.398 325.24 101.65 320.492 101.65 314.635V122.632C101.65 116.776 106.398 112.028 112.255 112.028H389.554C395.411 112.028 400.159 116.776 400.159 122.632V314.636C400.16 320.492 395.412 325.24 389.555 325.24Z" fill="#455A64"/>
<path d="M400.439 330.126H102.94C95.7843 330.126 89.9829 324.325 89.9829 317.169V311.47H413.395V317.169C413.396 324.325 407.596 330.126 400.439 330.126Z" fill="#455A64"/>
<path d="M391.312 120.498H109.663V300.553H391.312V120.498Z" fill="#263238"/>
<path d="M221.478 309.471L225.491 316.365H281.963L285.69 309.471H221.478Z" fill="#263238"/>
<path d="M383.708 299.977H117.847C116.531 299.977 115.464 298.91 115.464 297.595V128.976C115.464 127.661 116.531 126.593 117.847 126.593H383.708C385.024 126.593 386.091 127.66 386.091 128.976V297.595C386.09 298.91 385.024 299.977 383.708 299.977Z" fill="#EBEBEB"/>
<path d="M385.801 300.231H115.174L115.464 139.551H385.801V300.231Z" fill="#FAFAFA"/>
<path d="M138.202 133.289C138.202 134.579 137.204 135.624 135.974 135.624C134.742 135.624 133.745 134.579 133.745 133.289C133.745 132 134.742 130.956 135.974 130.956C137.204 130.956 138.202 132 138.202 133.289Z" fill="#263238"/>
<path d="M124.695 133.289C124.695 134.579 123.697 135.624 122.465 135.624C121.235 135.624 120.237 134.579 120.237 133.289C120.237 132 121.235 130.956 122.465 130.956C123.697 130.956 124.695 132 124.695 133.289Z" fill="#263238"/>
<path d="M131.637 133.289C131.637 134.579 130.639 135.624 129.408 135.624C128.177 135.624 127.18 134.579 127.18 133.289C127.18 132 128.178 130.956 129.408 130.956C130.639 130.956 131.637 132 131.637 133.289Z" fill="#263238"/>
<path d="M397.594 309.471C397.594 309.586 331.34 309.68 249.629 309.68C167.89 309.68 101.649 309.586 101.649 309.471C101.649 309.356 167.89 309.262 249.629 309.262C331.34 309.262 397.594 309.356 397.594 309.471Z" fill="#263238"/>
<path d="M221.707 170.375C226.159 167.684 230.898 165.644 235.787 164.256L238.687 150.319L262.233 149.906L265.622 163.731C270.556 164.947 275.365 166.819 279.909 169.352L291.809 161.551L308.751 177.91L301.375 190.075C304.067 194.528 306.106 199.27 307.493 204.158L321.429 207.058L321.842 230.604L308.017 233.994C306.801 238.927 304.928 243.735 302.397 248.279L310.196 260.181L293.84 277.123L281.673 269.747C277.221 272.437 272.48 274.476 267.592 275.865L264.69 289.801L241.145 290.215L237.756 276.389C232.822 275.172 228.014 273.301 223.47 270.769L211.569 278.569L194.626 262.211L202.003 250.046C199.312 245.593 197.272 240.854 195.884 235.964L181.947 233.064L181.535 209.518L195.36 206.128C196.576 201.194 198.449 196.387 200.98 191.843L193.182 179.94L209.539 162.997L221.707 170.375ZM234.259 201.742C224.567 211.78 224.848 227.774 234.886 237.464C244.924 247.155 260.917 246.874 270.608 236.836C280.298 226.798 280.019 210.805 269.98 201.114C259.942 191.423 243.95 191.704 234.259 201.742Z" fill="#E0E0E0"/>
<path d="M315.771 179.36C316.095 177.596 316.652 175.907 317.411 174.328L314.478 170.394L319.754 164.225L324.095 166.511C325.537 165.516 327.119 164.703 328.811 164.109L329.519 159.256L337.612 158.624L339.064 163.308C340.828 163.632 342.518 164.189 344.096 164.949L348.03 162.016L354.2 167.292L351.914 171.634C352.909 173.075 353.721 174.657 354.315 176.349L359.168 177.058L359.801 185.15L355.117 186.602C354.794 188.366 354.236 190.055 353.477 191.634L356.409 195.568L351.133 201.738L346.791 199.452C345.35 200.447 343.768 201.259 342.075 201.853L341.368 206.706L333.275 207.338L331.822 202.654C330.058 202.33 328.369 201.773 326.79 201.014L322.856 203.946L316.687 198.67L318.973 194.329C317.978 192.887 317.166 191.305 316.572 189.613L311.719 188.906L311.087 180.813L315.771 179.36ZM326.739 181.814C326.248 187.616 331.305 192.163 336.926 191.191C340.758 190.529 343.762 187.29 344.09 183.416C344.582 177.613 339.523 173.063 333.901 174.037C330.069 174.7 327.067 177.938 326.739 181.814Z" fill="#E0E0E0"/>
<path d="M138.479 260.642C138.541 258.527 138.889 256.456 139.491 254.479L135.366 250.414L140.417 242.272L145.892 244.162C147.396 242.743 149.097 241.511 150.965 240.516L150.922 234.727L160.251 232.542L162.784 237.747C164.9 237.808 166.971 238.156 168.948 238.761L173.013 234.636L181.155 239.687L179.265 245.162C180.684 246.665 181.914 248.366 182.91 250.234L188.699 250.192L190.885 259.52L185.68 262.053C185.618 264.169 185.27 266.24 184.667 268.217L188.792 272.282L183.741 280.424L178.266 278.533C176.762 279.952 175.061 281.183 173.194 282.179L173.237 287.968L163.908 290.153L161.375 284.948C159.259 284.886 157.188 284.538 155.21 283.935L151.145 288.06L143.003 283.008L144.893 277.534C143.474 276.031 142.244 274.329 141.248 272.462L135.459 272.504L133.273 263.175L138.479 260.642ZM151.972 263.268C153.267 268.796 158.797 272.227 164.325 270.932C169.852 269.637 173.283 264.107 171.988 258.579C170.693 253.052 165.163 249.62 159.635 250.915C154.108 252.211 150.677 257.741 151.972 263.268Z" fill="#E0E0E0"/>
<path d="M155.231 182.857C155.475 181.528 155.895 180.254 156.467 179.064L154.256 176.098L158.234 171.447L161.507 173.17C162.594 172.42 163.787 171.807 165.062 171.36L165.596 167.701L171.697 167.224L172.792 170.755C174.122 170.999 175.396 171.42 176.586 171.992L179.552 169.781L184.203 173.758L182.48 177.031C183.23 178.118 183.843 179.311 184.29 180.586L187.949 181.12L188.425 187.221L184.894 188.316C184.65 189.646 184.23 190.919 183.657 192.11L185.868 195.076L181.891 199.727L178.618 198.004C177.531 198.753 176.338 199.366 175.063 199.814L174.529 203.473L168.428 203.95L167.333 200.418C166.003 200.174 164.73 199.754 163.539 199.182L160.574 201.393L155.922 197.416L157.646 194.143C156.896 193.056 156.283 191.864 155.836 190.588L152.177 190.055L151.7 183.953L155.231 182.857ZM163.495 185.821C163.777 189.436 166.936 192.137 170.552 191.855C174.166 191.572 176.868 188.413 176.585 184.798C176.303 181.184 173.144 178.482 169.529 178.765C165.914 179.047 163.213 182.206 163.495 185.821Z" fill="#EBEBEB"/>
<path d="M316.077 248.559C316.287 247.417 316.647 246.323 317.138 245.3L315.239 242.753L318.656 238.758L321.467 240.238C322.4 239.594 323.425 239.067 324.521 238.683L324.98 235.54L330.221 235.131L331.161 238.164C332.303 238.373 333.398 238.734 334.42 239.226L336.967 237.327L340.962 240.743L339.482 243.555C340.127 244.488 340.653 245.512 341.037 246.608L344.18 247.066L344.59 252.307L341.556 253.248C341.347 254.39 340.986 255.484 340.494 256.506L342.394 259.054L338.977 263.05L336.165 261.569C335.232 262.213 334.207 262.74 333.112 263.124L332.653 266.267L327.412 266.676L326.471 263.642C325.329 263.433 324.235 263.072 323.213 262.58L320.666 264.479L316.67 261.063L318.15 258.251C317.506 257.318 316.98 256.293 316.595 255.197L313.453 254.739L313.043 249.498L316.077 248.559ZM323.176 251.105C323.418 254.21 326.132 256.53 329.237 256.288C332.342 256.046 334.663 253.332 334.42 250.227C334.177 247.122 331.463 244.801 328.358 245.044C325.253 245.286 322.933 248 323.176 251.105Z" fill="#EBEBEB"/>
<path d="M251.69 256.457H215.47C206.116 256.457 200.27 246.331 204.946 238.231L223.057 206.863L241.167 175.495C245.844 167.395 257.536 167.395 262.214 175.495L280.324 206.863L298.435 238.231C303.111 246.331 297.266 256.457 287.912 256.457H251.69Z" fill="#5EA8FF"/>
<path d="M290.679 241.855C290.679 241.855 290.781 242.042 290.963 242.417C291.101 242.806 291.33 243.402 291.33 244.226C291.349 245.038 291.148 246.079 290.482 247.086C290.144 247.58 289.7 248.065 289.118 248.445C288.533 248.816 287.816 249.074 287.035 249.126C280.863 249.192 271.95 249.181 260.927 249.208C249.903 249.22 236.782 249.234 222.212 249.249C220.391 249.25 218.547 249.251 216.682 249.253C214.718 249.296 212.85 247.9 212.219 246.024C211.886 245.096 211.814 244.066 212.036 243.092C212.099 242.851 212.178 242.613 212.256 242.376C212.363 242.151 212.464 241.917 212.576 241.7L213.274 240.422C214.207 238.715 215.15 236.991 216.101 235.252C219.906 228.296 223.845 221.094 227.88 213.719C231.918 206.342 235.861 199.139 239.669 192.183C241.574 188.706 243.445 185.29 245.278 181.945C245.745 181.11 246.172 180.274 246.665 179.452C247.164 178.621 247.864 177.904 248.703 177.429C250.373 176.455 252.48 176.387 254.18 177.184C255.029 177.579 255.789 178.17 256.345 178.913C256.892 179.674 257.271 180.473 257.707 181.248C258.558 182.806 259.397 184.343 260.224 185.858C261.878 188.887 263.484 191.829 265.037 194.672C268.141 200.36 271.031 205.659 273.67 210.497C278.936 220.171 283.197 228.002 286.148 233.424C287.611 236.128 288.747 238.23 289.524 239.666C289.903 240.375 290.193 240.918 290.393 241.294C290.588 241.662 290.679 241.855 290.679 241.855C290.679 241.855 290.566 241.674 290.361 241.312C290.152 240.94 289.851 240.404 289.458 239.703C288.666 238.274 287.51 236.184 286.02 233.494C283.044 228.086 278.747 220.275 273.437 210.626C270.785 205.795 267.881 200.503 264.763 194.823C263.205 191.982 261.593 189.044 259.933 186.017C259.103 184.504 258.262 182.968 257.408 181.412C256.974 180.642 256.577 179.82 256.071 179.122C255.546 178.423 254.832 177.87 254.034 177.499C252.435 176.753 250.448 176.82 248.883 177.735C248.096 178.182 247.441 178.855 246.972 179.638C246.496 180.432 246.058 181.289 245.596 182.118C243.766 185.465 241.898 188.882 239.995 192.362C236.189 199.319 232.249 206.523 228.213 213.901C224.175 221.276 220.234 228.475 216.427 235.43C215.475 237.169 214.531 238.892 213.597 240.598C213.15 241.467 212.58 242.267 212.391 243.175C212.184 244.079 212.251 245.036 212.56 245.901C213.151 247.652 214.868 248.933 216.682 248.897C218.547 248.899 220.391 248.9 222.212 248.901C236.782 248.916 249.903 248.93 260.927 248.942C271.939 248.958 280.853 248.972 287.026 248.98C287.782 248.935 288.476 248.692 289.049 248.337C289.617 247.973 290.055 247.504 290.39 247.025C291.049 246.047 291.261 245.028 291.254 244.228C291.224 242.594 290.61 241.868 290.679 241.855Z" fill="#263238"/>
<path d="M245.827 235.151C245.827 231.939 248.386 229.543 252.034 229.543C255.681 229.543 258.185 231.939 258.185 235.151C258.185 238.309 255.681 240.868 252.034 240.868C248.386 240.868 245.827 238.309 245.827 235.151ZM245.882 202.267H258.186L256.117 226.495H247.896L245.882 202.267Z" fill="white"/>
<path d="M253.425 171.892C253.398 171.969 252.578 171.485 251.12 171.418C249.684 171.333 247.62 171.806 245.87 173.173C244.123 174.551 243.059 176.332 242.399 177.629C241.739 178.94 241.429 179.804 241.37 179.782C241.346 179.774 241.397 179.549 241.522 179.153C241.646 178.757 241.852 178.193 242.158 177.513C242.765 176.171 243.817 174.311 245.637 172.874C247.468 171.443 249.646 170.992 251.138 171.151C251.889 171.222 252.48 171.4 252.861 171.572C253.244 171.742 253.436 171.873 253.425 171.892Z" fill="white"/>
<path d="M238.281 185.202C238.191 185.149 238.547 184.379 239.078 183.483C239.609 182.586 240.111 181.902 240.201 181.956C240.292 182.009 239.935 182.78 239.404 183.676C238.874 184.572 238.371 185.256 238.281 185.202Z" fill="white"/>
<g opacity="0.3">
<path d="M269.859 188.739L213.452 223.498L206.125 236.189L273.842 195.637L269.859 188.739Z" fill="white"/>
</g>
<g opacity="0.3">
<path d="M278.742 204.142L203.972 248.247C204.186 249.248 204.858 250.54 205.597 251.39L280.064 206.432L278.742 204.142Z" fill="white"/>
</g>
<path d="M463.529 286.392C457.54 279.791 448.461 277.67 440.492 280.223L433.523 272.577L432.553 271.492L377.423 211.004C380.736 203.32 379.506 194.079 373.517 187.478C368.423 181.865 361.094 179.488 354.114 180.473L351.421 181.543L360.799 187.841L360.302 198.065L352.721 204.944L342.496 204.447L335.812 197.08L333.049 198.159C332.258 204.331 336.395 212.101 340.903 217.07C346.882 223.661 355.943 225.785 363.904 223.25L419.957 284.751L421.681 286.662L426.993 292.491C423.698 300.168 424.934 309.392 430.913 315.983C435.404 320.932 441.359 324.237 447.553 324.068L450.316 322.989L443.631 315.621L444.129 305.396L451.71 298.517L461.935 299.014L465.857 307.462L468.619 306.382C470.277 299.53 468.622 292.006 463.529 286.392Z" fill="#E0E0E0"/>
<g opacity="0.3">
<path d="M463.529 286.392C457.54 279.791 448.461 277.67 440.492 280.223L433.523 272.577L432.553 271.492L377.423 211.004C380.736 203.32 379.506 194.079 373.517 187.478C368.423 181.865 361.094 179.488 354.114 180.473L351.421 181.543L360.799 187.841L360.302 198.065L352.721 204.944L342.496 204.447L335.812 197.08L333.049 198.159C332.258 204.331 336.395 212.101 340.903 217.07C346.882 223.661 355.943 225.785 363.904 223.25L419.957 284.751L421.681 286.662L426.993 292.491C423.698 300.168 424.934 309.392 430.913 315.983C435.404 320.932 441.359 324.237 447.553 324.068L450.316 322.989L443.631 315.621L444.129 305.396L451.71 298.517L461.935 299.014L465.857 307.462L468.619 306.382C470.277 299.53 468.622 292.006 463.529 286.392Z" fill="black"/>
</g>
<path d="M460.766 287.472C454.776 280.871 445.698 278.75 437.729 281.304L430.76 273.657L429.789 272.572L374.659 212.085C377.972 204.401 376.743 195.159 370.754 188.559C365.66 182.945 358.331 180.569 351.351 181.553L358.035 188.92L357.539 199.145L349.958 206.024L339.733 205.527L333.048 198.159C331.391 205.01 333.046 212.535 338.139 218.149C344.12 224.74 353.18 226.864 361.14 224.329L417.193 285.829L418.917 287.741L424.23 293.57C420.935 301.247 422.17 310.471 428.15 317.062C433.244 322.676 440.572 325.052 447.552 324.068L440.868 316.7L441.364 306.476L448.946 299.597L459.171 300.094L465.855 307.461C467.514 300.61 465.859 293.085 460.766 287.472Z" fill="#E0E0E0"/>
<path d="M460.766 287.472C460.766 287.472 461.083 287.823 461.69 288.526C462.251 289.263 463.114 290.355 463.969 291.964C464.827 293.565 465.673 295.682 466.181 298.307C466.642 300.93 466.748 304.082 465.933 307.481L465.899 307.625L465.799 307.515C463.817 305.337 461.557 302.855 459.103 300.158L459.168 300.189C456.014 300.039 452.584 299.877 448.942 299.704L449.019 299.677C446.653 301.829 444.11 304.141 441.445 306.564L441.484 306.482C441.332 309.658 441.168 313.116 440.997 316.707L440.964 316.615C443.034 318.893 445.31 321.396 447.655 323.977L447.828 324.167L447.574 324.203C444.115 324.697 440.414 324.372 436.917 323.106C433.423 321.851 430.148 319.642 427.609 316.652C425.05 313.687 423.229 309.931 422.58 305.863C421.912 301.805 422.386 297.457 424.081 293.507L424.11 293.682C405.417 273.176 383.939 249.617 361.003 224.457L361.199 224.509C357.34 225.741 353.012 225.916 348.894 224.854C344.774 223.813 340.911 221.498 337.994 218.269C335.542 215.567 333.781 212.269 332.909 208.767C332.029 205.267 332.027 201.577 332.867 198.115L332.951 197.768L333.19 198.032C335.434 200.505 337.662 202.961 339.874 205.4L339.744 205.339C343.178 205.506 346.587 205.672 349.969 205.837L349.835 205.885C352.387 203.57 354.913 201.279 357.417 199.007L357.356 199.136C357.524 195.689 357.69 192.284 357.855 188.912L357.902 189.043C355.649 186.559 353.423 184.104 351.219 181.674L350.988 181.42L351.328 181.374C355.442 180.816 359.658 181.384 363.355 183.026C367.058 184.65 370.243 187.276 372.507 190.478C374.785 193.668 376.182 197.414 376.521 201.199C376.878 204.984 376.251 208.777 374.811 212.149L374.782 211.974C402.103 242.012 424.094 266.189 437.791 281.247L437.703 281.223C441.648 279.97 445.398 280.011 448.476 280.556C451.561 281.168 454.019 282.248 455.83 283.358C457.659 284.456 458.841 285.574 459.643 286.292C460.394 287.069 460.766 287.472 460.766 287.472C460.766 287.472 460.371 287.09 459.613 286.324C458.802 285.618 457.614 284.514 455.785 283.433C453.974 282.339 451.523 281.278 448.454 280.683C445.39 280.155 441.666 280.127 437.755 281.384L437.704 281.4L437.668 281.36C423.946 266.326 401.913 242.187 374.54 212.196L374.469 212.118L374.511 212.02C375.926 208.696 376.541 204.959 376.186 201.233C375.849 197.506 374.47 193.82 372.226 190.681C369.994 187.529 366.857 184.948 363.214 183.352C359.575 181.739 355.426 181.182 351.379 181.733L351.487 181.433C353.691 183.861 355.918 186.315 358.174 188.799L358.225 188.855L358.221 188.931C358.058 192.303 357.893 195.708 357.726 199.155L357.722 199.232L357.666 199.283C355.162 201.555 352.637 203.848 350.086 206.163L350.028 206.215L349.951 206.211C346.569 206.047 343.16 205.882 339.726 205.715L339.648 205.712L339.596 205.654C337.383 203.215 335.154 200.76 332.911 198.287L333.234 198.205C332.408 201.608 332.412 205.236 333.277 208.676C334.134 212.118 335.863 215.358 338.275 218.016C341.143 221.19 344.939 223.465 348.989 224.489C353.036 225.533 357.292 225.361 361.085 224.151L361.2 224.114L361.282 224.204C384.205 249.376 405.67 272.946 424.353 293.462L424.424 293.54L424.382 293.637C422.709 297.527 422.238 301.812 422.892 305.812C423.528 309.824 425.317 313.529 427.839 316.456C430.341 319.41 433.568 321.592 437.015 322.836C440.465 324.09 444.119 324.417 447.536 323.934L447.455 324.16C445.114 321.575 442.842 319.068 440.776 316.787L440.741 316.748L440.744 316.695C440.921 313.105 441.093 309.647 441.25 306.471L441.252 306.422L441.289 306.39C443.958 303.973 446.506 301.666 448.877 299.52L448.91 299.49L448.955 299.492C452.596 299.673 456.025 299.844 459.179 300.002L459.218 300.004L459.244 300.034C461.69 302.737 463.941 305.227 465.918 307.412L465.784 307.446C466.604 304.074 466.512 300.941 466.066 298.331C465.573 295.718 464.744 293.605 463.9 292.004C463.06 290.395 462.21 289.298 461.661 288.554C461.063 287.842 460.766 287.472 460.766 287.472Z" fill="#263238"/>
<path d="M372.145 215.612C372.167 215.625 372.082 215.817 371.905 216.156C371.734 216.496 371.446 216.968 371.057 217.529C370.283 218.651 369.029 220.091 367.374 221.368C365.713 222.641 363.999 223.482 362.715 223.941C362.073 224.173 361.544 224.33 361.17 224.408C360.798 224.491 360.591 224.525 360.584 224.5C360.567 224.438 361.377 224.214 362.618 223.695C363.859 223.179 365.517 222.318 367.145 221.071C368.768 219.819 370.026 218.439 370.844 217.371C371.664 216.305 372.09 215.58 372.145 215.612Z" fill="#263238"/>
<path d="M433.711 241.884L412.739 232.127L394.02 229.793L400.895 235.583C400.895 235.583 376.698 244.016 376.273 245.918C375.849 247.819 378.185 252.927 382.447 251.984C382.447 251.984 380.049 254.869 381.047 258.102C382.046 261.334 384.25 261.919 388.318 261.168C388.318 261.168 385.55 265.312 387.72 267.423C389.89 269.536 393.265 269 393.265 269C393.265 269 393.306 274.046 395.972 274.487C398.638 274.929 406.064 274.406 408.836 273.55C411.607 272.694 422.922 269.201 422.922 269.201L432.103 267.186L433.711 241.884Z" fill="#FFBF9D"/>
<path d="M395.17 248.289C395.251 248.566 392.467 249.619 388.952 250.639C385.436 251.661 382.522 252.264 382.442 251.986C382.361 251.709 385.145 250.657 388.661 249.636C392.175 248.614 395.09 248.011 395.17 248.289Z" fill="#FF9A6C"/>
<path d="M398.732 258.247C398.816 258.524 396.603 259.434 393.793 260.28C390.981 261.126 388.635 261.589 388.552 261.312C388.469 261.036 390.68 260.125 393.492 259.279C396.303 258.432 398.649 257.97 398.732 258.247Z" fill="#FF9A6C"/>
<path d="M401.928 266.521C401.977 266.832 399.968 267.257 397.608 267.849C395.261 268.465 393.412 269.273 393.266 269C393.13 268.772 394.829 267.503 397.341 266.838C399.84 266.214 401.89 266.263 401.928 266.521Z" fill="#FF9A6C"/>
<path d="M404.573 234.78C404.651 235.063 401.903 236.06 398.509 237.231C395.111 238.397 392.332 239.302 392.22 239.031C392.11 238.769 394.736 237.421 398.169 236.243C401.599 235.06 404.499 234.506 404.573 234.78Z" fill="#FF9A6C"/>
<path d="M429.769 240.05L475.114 256.472L472.464 287.596L422.542 267.469L429.769 240.05Z" fill="#FFBF9D"/>
<path d="M487.949 185.587C487.949 185.587 493.863 191.698 497.303 202.683C500.721 213.592 516.982 260.235 516.568 275.056C516.14 290.379 505.824 301.313 483.153 295.258C469.624 291.645 453.51 285.803 453.51 285.803L464.965 248.141L473.926 250.4L459.455 223.236L487.949 185.587Z" fill="#5EA8FF"/>
<path d="M477.575 203.39C477.66 203.451 471.389 212.385 463.571 223.342C455.75 234.304 449.343 243.137 449.257 243.077C449.172 243.016 455.442 234.084 463.263 223.123C471.081 212.165 477.49 203.329 477.575 203.39Z" fill="#263238"/>
<path d="M494.923 255.553C494.906 255.58 494.532 255.361 493.823 255.036C493.116 254.708 492.06 254.306 490.714 253.937C489.37 253.565 487.739 253.217 485.928 252.823C484.113 252.422 482.127 251.983 480.043 251.523C475.87 250.589 472.096 249.724 469.369 249.079C468.056 248.76 466.969 248.495 466.144 248.295C465.385 248.102 464.968 247.983 464.974 247.958C464.979 247.932 465.408 248.002 466.178 248.151C467.009 248.322 468.105 248.546 469.43 248.817C472.172 249.395 475.955 250.219 480.129 251.153C482.21 251.624 484.193 252.072 486.007 252.483C487.812 252.895 489.44 253.27 490.788 253.679C492.137 254.084 493.193 254.531 493.888 254.903C494.237 255.085 494.498 255.245 494.67 255.361C494.843 255.476 494.93 255.542 494.923 255.553Z" fill="#263238"/>
<g opacity="0.3">
<path d="M506.515 257.191C506.336 255.393 504.989 253.874 503.395 253.02C501.802 252.166 499.976 251.868 498.185 251.623C490.036 250.505 481.799 250.195 473.579 249.887L474.339 250.217C484.485 252.09 494.441 254.99 504.005 258.86C504.556 259.083 505.181 259.308 505.723 259.067C506.385 258.77 506.587 257.914 506.515 257.191Z" fill="black"/>
</g>
<g opacity="0.3">
<path d="M319.69 112.779C312.048 111.479 302.907 113.697 295.265 112.397C294.123 112.203 292.874 112.027 291.87 112.605C290.663 113.299 290.246 114.839 290.187 116.23C290.023 120.077 291.803 123.874 294.581 126.54C297.358 129.207 301.054 130.8 304.851 131.445C307.902 131.963 311.18 131.863 313.901 130.39C318.651 127.817 320.949 118.032 319.69 112.779Z" fill="black"/>
</g>
<path d="M290.029 126.764C290.029 126.764 285.39 121.331 284.719 118.823C284.273 117.161 284.496 112.512 284.698 109.565C284.836 107.545 286.091 105.699 288.008 105.049C288.677 104.823 289.31 104.793 289.738 105.189C289.738 105.189 290.031 104.681 291.851 102.818C293.671 100.955 294.536 99.6916 298.541 100.851C298.541 100.851 301.487 97.7398 303.182 97.972C304.877 98.205 306.556 98.6993 306.556 98.6993C306.556 98.6993 313.014 98.427 314.337 100.478C314.917 101.375 316.11 102.002 317.27 102.422C319.309 103.163 320.985 104.648 321.876 106.626C323.088 109.317 323.165 112.253 323.165 112.253L316.594 112.514C316.594 112.514 317.058 127.588 315.408 128.804C313.758 130.02 313.127 129.588 313.127 129.588C313.127 129.588 311.868 133.125 306.955 130.507C306.955 130.507 302.876 131.737 301.136 130.056C299.396 128.375 292.999 112.219 292.999 112.219L293.177 120.248C293.177 120.248 296.548 125.444 294.897 126.66C293.249 127.876 290.029 126.764 290.029 126.764Z" fill="#FFBF9D"/>
<path d="M298.211 106.33C298.235 106.322 298.368 106.66 298.585 107.277C298.818 107.965 299.115 108.846 299.471 109.901C300.205 112.121 301.192 115.197 302.261 118.601C303.339 122.004 304.208 125.119 305.217 127.217C305.705 128.272 306.195 129.077 306.553 129.62C306.91 130.164 307.137 130.446 307.111 130.468C307.101 130.477 307.035 130.414 306.917 130.287C306.798 130.161 306.631 129.968 306.433 129.705C306.034 129.183 305.501 128.388 304.976 127.334C303.89 125.233 302.976 122.11 301.899 118.715C300.831 115.311 299.883 112.223 299.216 109.981C298.906 108.912 298.647 108.019 298.444 107.321C298.269 106.691 298.185 106.338 298.211 106.33Z" fill="#FF9A6C"/>
<path d="M306.272 104.47C306.297 104.464 306.415 104.812 306.606 105.446C306.809 106.153 307.069 107.059 307.381 108.144C308.02 110.425 308.876 113.584 309.8 117.078C310.723 120.573 311.539 123.743 312.111 126.042C312.376 127.139 312.597 128.055 312.77 128.769C312.917 129.416 312.987 129.776 312.961 129.783C312.936 129.791 312.819 129.443 312.627 128.809C312.424 128.103 312.164 127.197 311.853 126.112C311.214 123.831 310.357 120.671 309.433 117.175C308.51 113.679 307.694 110.509 307.122 108.21C306.857 107.113 306.636 106.196 306.464 105.482C306.316 104.837 306.246 104.477 306.272 104.47Z" fill="#FF9A6C"/>
</svg>
