<svg width="598" height="520" viewBox="0 0 598 520" fill="none" xmlns="http://www.w3.org/2000/svg">
<g clipPath="url(#clip0_85_116)">
<g filter="url(#filter0_f_85_116)">
<path d="M429.47 34.5C407.47 -71.9 322.637 -136.167 282.97 -155H-205.03C-226.53 32.1667 -265.13 409.5 -247.53 421.5C-225.53 436.5 -56.53 341.5 59.47 326C175.47 310.5 202.97 418.5 296.47 421.5C389.97 424.5 456.97 167.5 429.47 34.5Z" fill="#3EDAFC"/>
<path d="M-314.345 213C-341.684 175.839 -341.472 42.2841 -337.949 -19.848L-96.9884 -194.304C9.92999 -114.16 229.287 61.4722 251.366 122.842C278.965 199.555 158.715 187.252 114.901 178.227C71.0869 169.201 -22.8765 160.675 -103.319 197.388C-183.761 234.102 -280.171 259.452 -314.345 213Z" fill="#1E25C9"/>
</g>
<path d="M-49.7971 379.252C-152.016 427.935 -168.517 495.731 -163.99 523.544C-194.082 339.748 -253.265 -24.778 -249.266 -12.5142C-244.266 2.8155 -203.672 94.2745 34.244 -0.0884928C272.16 -94.4515 339.185 49.4442 303.719 89.9096C268.254 130.375 186.481 128.865 172.121 241.639C157.761 354.414 77.9769 318.4 -49.7971 379.252Z" stroke="white"/>
<path d="M-49.7971 402.252C-152.016 450.935 -168.517 518.731 -163.99 546.544C-194.082 362.748 -253.265 -1.77802 -249.266 10.4858C-244.266 25.8155 -203.672 117.275 34.244 22.9115C272.16 -71.4515 339.185 72.4442 303.719 112.91C268.254 153.375 186.481 151.865 172.121 264.639C157.761 377.414 77.9769 341.4 -49.7971 402.252Z" stroke="white" stroke-opacity="0.6"/>
<path d="M-49.7971 424.252C-152.016 472.935 -168.517 540.731 -163.99 568.544C-194.082 384.748 -253.265 20.222 -249.266 32.4858C-244.266 47.8155 -203.672 139.275 34.244 44.9115C272.16 -49.4515 339.185 94.4442 303.719 134.91C268.254 175.375 186.481 173.865 172.121 286.639C157.761 399.414 77.9769 363.4 -49.7971 424.252Z" stroke="white" stroke-opacity="0.4"/>
</g>
<defs>
<filter id="filter0_f_85_116" x="-489.602" y="-344.305" width="1075.3" height="917.405" filterUnits="userSpaceOnUse" color-interpolation-filters="sRGB">
<feFlood flood-opacity="0" result="BackgroundImageFix"/>
<feBlend mode="normal" in="SourceGraphic" in2="BackgroundImageFix" result="shape"/>
<feGaussianBlur stdDeviation="75" result="effect1_foregroundBlur_85_116"/>
</filter>
<clipPath id="clip0_85_116">
<rect width="598" height="520" fill="white"/>
</clipPath>
</defs>
</svg>
